<svg width="100%" height="100%" viewBox="0 0 62 14" fill="none" xmlns="http://www.w3.org/2000/svg"><path d="M0 12.228V0.226318H4.69096C6.49464 0.226318 7.90742 0.761252 8.92928 1.85169C9.95114 2.92156 10.4724 4.38234 10.4724 6.25461C10.4724 8.09258 9.95114 9.55336 8.89499 10.6232C7.85255 11.6931 6.42606 12.228 4.58809 12.228H0ZM2.40034 9.9237H4.70467C5.74711 9.9237 6.54265 9.56708 7.10502 8.86755C7.67424 8.16802 7.96914 7.27647 7.96914 6.2066C7.96914 5.15045 7.67424 4.29318 7.10502 3.59366C6.53579 2.89413 5.74025 2.53751 4.70467 2.53751H2.40034V9.9237Z" fill="#FFFFFF"></path><path d="M12.7641 4.49904C13.6557 3.58691 14.7942 3.13428 16.1726 3.13428C17.5511 3.13428 18.6896 3.58691 19.5811 4.49904C20.4727 5.3906 20.9116 6.49476 20.9116 7.7978C20.9116 9.11456 20.4727 10.2187 19.5811 11.1103C18.6896 12.0018 17.5511 12.4613 16.1726 12.4613C14.7942 12.4613 13.6557 12.0087 12.7641 11.1103C11.8726 10.2187 11.4337 9.11456 11.4337 7.7978C11.4268 6.49476 11.8657 5.3906 12.7641 4.49904ZM16.1726 10.3284C16.8722 10.3284 17.4414 10.0816 17.9077 9.59463C18.3809 9.09399 18.621 8.49047 18.621 7.79094C18.621 7.09141 18.3741 6.49476 17.9077 6.00097C17.4345 5.51405 16.8653 5.26715 16.1726 5.26715C15.4731 5.26715 14.8902 5.51405 14.417 6.00097C13.9437 6.4879 13.7174 7.09141 13.7174 7.79094C13.7174 8.49047 13.9437 9.08713 14.417 9.59463C14.8902 10.0884 15.4731 10.3284 16.1726 10.3284Z" fill="#FFFFFF"></path><path d="M23.057 4.49904C23.9486 3.58691 25.087 3.13428 26.4655 3.13428C27.844 3.13428 28.9825 3.58691 29.874 4.49904C30.7656 5.3906 31.2045 6.49476 31.2045 7.7978C31.2045 9.11456 30.7656 10.2187 29.874 11.1103C28.9825 12.0018 27.844 12.4613 26.4655 12.4613C25.087 12.4613 23.9486 12.0087 23.057 11.1103C22.1655 10.2187 21.7266 9.11456 21.7266 7.7978C21.7266 6.49476 22.1655 5.3906 23.057 4.49904ZM26.4655 10.3284C27.1651 10.3284 27.7343 10.0816 28.2006 9.59463C28.6738 9.09399 28.9139 8.49047 28.9139 7.79094C28.9139 7.09141 28.667 6.49476 28.2006 6.00097C27.7274 5.51405 27.1582 5.26715 26.4655 5.26715C25.766 5.26715 25.1831 5.51405 24.7099 6.00097C24.2366 6.4879 24.0103 7.09141 24.0103 7.79094C24.0103 8.49047 24.2366 9.08713 24.7099 9.59463C25.1831 10.0884 25.766 10.3284 26.4655 10.3284Z" fill="#FFFFFF"></path><path d="M32.5 12.2281V3.38115H34.6946V4.5676C35.2295 3.60747 36.0457 3.14111 37.1292 3.14111C37.4859 3.14111 37.8425 3.20284 38.1991 3.33314L38.0071 5.52774C37.6367 5.41115 37.2732 5.34943 36.9509 5.34943C35.6547 5.34943 34.7906 6.19298 34.7906 8.03095V12.235H32.5V12.2281Z" fill="#FFFFFF"></path><path d="M45.6883 3.3811H47.8624V12.2349H45.6883V11.2131C44.9271 12.0429 43.9807 12.4475 42.8628 12.4475C41.5941 12.4475 40.5379 12.0086 39.7149 11.1171C38.8851 10.2255 38.4805 9.10078 38.4805 7.7703C38.4805 6.43983 38.9057 5.33567 39.7286 4.47154C40.5585 3.59371 41.6146 3.15479 42.8628 3.15479C43.967 3.15479 44.9065 3.57999 45.6883 4.43725V3.3811ZM45.0094 5.99405C44.5362 5.4934 43.9532 5.24651 43.24 5.24651C42.5062 5.24651 41.9232 5.4934 41.45 5.99405C40.9974 6.49469 40.7711 7.09821 40.7711 7.79773C40.7711 8.51098 40.9974 9.11449 41.4706 9.61514C41.9438 10.1158 42.5268 10.3627 43.24 10.3627C43.9532 10.3627 44.5362 10.1158 45.0094 9.61514C45.4826 9.11449 45.7226 8.51098 45.7226 7.79773C45.7226 7.09821 45.4757 6.49469 45.0094 5.99405Z" fill="#FFFFFF"></path><path d="M55.6338 3.3811H58.137L54.5777 12.6739C53.7136 14.9302 52.582 16 50.8263 16C50.161 16 49.5918 15.856 49.1186 15.5611L49.5095 13.6477C49.9142 13.8397 50.3051 13.9426 50.648 13.9426C51.3612 13.9426 51.9304 13.4694 52.3694 12.5436L52.5477 12.1389L48.6797 3.38796H51.3269L53.6175 9.15564L55.6338 3.3811Z" fill="#FFFFFF"></path><path d="M59 11.0896C59 10.3558 59.5829 9.7934 60.3511 9.7934C61.0849 9.7934 61.6678 10.3626 61.6678 11.0896C61.6678 11.8714 61.0849 12.4201 60.3511 12.4201C59.5829 12.4269 59 11.8714 59 11.0896ZM59.2606 8.90184L59.1303 0H61.5512L61.3866 8.90184H59.2606Z" fill="#FFFFFF"></path></svg>