<svg width="16" height="16" viewBox="0 0 16 16" fill="none" xmlns="http://www.w3.org/2000/svg">
    <path fill-rule="evenodd" clip-rule="evenodd"
          d="M8.31644 10.5366C8.14287 10.7101 7.86147 10.7101 7.6879 10.5366L5.02123 7.86991C4.84767 7.69634 4.84767 7.41493 5.02123 7.24137C5.1948 7.0678 5.47621 7.0678 5.64977 7.24137L7.55773 9.14932L7.55773 1.33341C7.55773 1.08796 7.75671 0.88897 8.00217 0.88897C8.24763 0.88897 8.44662 1.08796 8.44662 1.33341L8.44661 9.14932L10.3546 7.24137C10.5281 7.0678 10.8095 7.0678 10.9831 7.24137C11.1567 7.41493 11.1567 7.69634 10.9831 7.86991L8.31644 10.5366Z"
          fill="currentColor"></path>
    <path fill-rule="evenodd" clip-rule="evenodd"
          d="M3.5 5.90909C3.22386 5.90909 3 6.1126 3 6.36364V13.6364C3 13.8874 3.22386 14.0909 3.5 14.0909H12.5C12.7761 14.0909 13 13.8874 13 13.6364V6.36364C13 6.1126 12.7761 5.90909 12.5 5.90909H10.5C10.2239 5.90909 10 5.70558 10 5.45455C10 5.20351 10.2239 5 10.5 5H12.5C13.3284 5 14 5.61052 14 6.36364V13.6364C14 14.3895 13.3284 15 12.5 15H3.5C2.67157 15 2 14.3895 2 13.6364V6.36364C2 5.61052 2.67157 5 3.5 5H5.5C5.77614 5 6 5.20351 6 5.45455C6 5.70558 5.77614 5.90909 5.5 5.90909H3.5Z"
          fill="currentColor"></path>
</svg>